<?xml version="1.0" encoding="UTF-8" standalone="no"?>
<!-- Generator: Adobe Illustrator 16.0.0, SVG Export Plug-In . SVG Version: 6.00 Build 0)  -->

<svg
   xmlns:dc="http://purl.org/dc/elements/1.1/"
   xmlns:cc="http://creativecommons.org/ns#"
   xmlns:rdf="http://www.w3.org/1999/02/22-rdf-syntax-ns#"
   xmlns:svg="http://www.w3.org/2000/svg"
   xmlns="http://www.w3.org/2000/svg"
   xmlns:sodipodi="http://sodipodi.sourceforge.net/DTD/sodipodi-0.dtd"
   xmlns:inkscape="http://www.inkscape.org/namespaces/inkscape"
   version="1.1"
   id="Capa_1"
   x="0px"
   y="0px"
   width="284.929px"
   height="284.929px"
   viewBox="0 0 284.929 284.929"
   style="enable-background:new 0 0 284.929 284.929;"
   xml:space="preserve"
   sodipodi:docname="chevron-up.svg"
   inkscape:version="0.92.4 (5da689c313, 2019-01-14)"><metadata
   id="metadata3801"><rdf:RDF><cc:Work
       rdf:about=""><dc:format>image/svg+xml</dc:format><dc:type
         rdf:resource="http://purl.org/dc/dcmitype/StillImage" /></cc:Work></rdf:RDF></metadata><defs
   id="defs3799" /><sodipodi:namedview
   pagecolor="#ffffff"
   bordercolor="#666666"
   borderopacity="1"
   objecttolerance="10"
   gridtolerance="10"
   guidetolerance="10"
   inkscape:pageopacity="0"
   inkscape:pageshadow="2"
   inkscape:window-width="1366"
   inkscape:window-height="705"
   id="namedview3797"
   showgrid="false"
   inkscape:zoom="1.8811705"
   inkscape:cx="142.46449"
   inkscape:cy="142.46449"
   inkscape:window-x="-8"
   inkscape:window-y="-8"
   inkscape:window-maximized="1"
   inkscape:current-layer="Capa_1" />
<g
   id="g3764">
	<g
   id="g3762">
		<path
   d="M17.128,167.872c1.903,1.902,4.093,2.854,6.567,2.854c2.474,0,4.664-0.952,6.567-2.854L142.466,55.666l112.208,112.206    c1.902,1.902,4.093,2.854,6.563,2.854c2.478,0,4.668-0.952,6.57-2.854l14.274-14.277c1.902-1.902,2.847-4.093,2.847-6.563    c0-2.475-0.951-4.665-2.847-6.567L149.028,7.419c-1.901-1.906-4.088-2.853-6.562-2.853s-4.665,0.95-6.567,2.853L2.856,140.464    C0.95,142.367,0,144.554,0,147.034c0,2.468,0.953,4.658,2.856,6.561L17.128,167.872z"
   id="path3758" />
		<path
   d="M149.028,117.055c-1.901-1.906-4.088-2.856-6.562-2.856s-4.665,0.953-6.567,2.856L2.856,250.1    C0.95,252.003,0,254.192,0,256.67c0,2.472,0.953,4.661,2.856,6.564l14.272,14.276c1.903,1.903,4.093,2.848,6.567,2.848    c2.474,0,4.664-0.951,6.567-2.848l112.204-112.209l112.208,112.209c1.902,1.903,4.093,2.852,6.563,2.852    c2.478,0,4.668-0.948,6.57-2.852l14.274-14.276c1.902-1.903,2.847-4.093,2.847-6.564c0-2.478-0.951-4.667-2.847-6.57    L149.028,117.055z"
   id="path3760" />
	</g>
</g>
<g
   id="g3766">
</g>
<g
   id="g3768">
</g>
<g
   id="g3770">
</g>
<g
   id="g3772">
</g>
<g
   id="g3774">
</g>
<g
   id="g3776">
</g>
<g
   id="g3778">
</g>
<g
   id="g3780">
</g>
<g
   id="g3782">
</g>
<g
   id="g3784">
</g>
<g
   id="g3786">
</g>
<g
   id="g3788">
</g>
<g
   id="g3790">
</g>
<g
   id="g3792">
</g>
<g
   id="g3794">
</g>
<path
   style="fill:#ffffff;stroke-width:0.53158391"
   d="M 19.50913,169.21494 C 18.632017,168.6681 14.062052,164.30336 9.3536541,159.51552 -0.01849848,149.98524 -0.53299831,149.10123 0.65653401,144.57213 1.1922741,142.53231 7.9764099,135.5705 68.323201,75.133243 105.21237,38.188768 136.45791,7.270518 137.75773,6.4260211 c 2.52439,-1.6401055 5.16678,-1.9705497 7.83508,-0.979815 1.69169,0.6281206 136.94869,135.5083239 138.14754,137.7626839 0.90192,1.696 0.99336,5.06674 0.19446,7.16818 -0.65872,1.73269 -16.53686,17.95632 -18.67461,19.08094 -1.7083,0.8987 -5.87311,0.99226 -7.50352,0.16856 -0.63861,-0.32264 -26.81669,-26.21701 -58.17349,-57.54304 L 142.57081,55.127108 85.558433,112.08353 c -31.356807,31.32603 -57.534878,57.2204 -58.173493,57.54304 -1.84119,0.93018 -6.078834,0.70871 -7.87581,-0.41163 z"
   id="path3803"
   inkscape:connector-curvature="0" /><path
   style="fill:#ffffff;stroke-width:0.53158391"
   d="m 20.83809,279.6548 c -1.342883,-0.39463 -4.322566,-3.01414 -10.709387,-9.4149 -7.3825401,-7.39865 -8.9498211,-9.24316 -9.45822486,-11.13123 -1.40398067,-5.21398 -6.64047324,0.49129 68.99800286,-75.1748 62.271639,-62.29437 69.112569,-68.97599 70.960169,-69.30759 4.96791,-0.89162 0.72232,-4.8182 74.37265,68.78426 37.35162,37.32733 68.26987,68.62196 68.70723,69.54362 1.00379,2.11535 1.02251,5.65436 0.0398,7.52178 -0.41548,0.78951 -4.6615,5.29913 -9.43561,10.02139 -9.71258,9.60708 -10.99057,10.37594 -15.34601,9.23241 -2.17451,-0.57092 -7.10992,-5.35752 -59.51973,-57.72508 L 142.2984,164.90212 85.953828,221.28135 c -30.989509,31.00858 -56.967778,56.83412 -57.729484,57.39009 -1.736892,1.26776 -4.958719,1.69669 -7.386214,0.98336 z"
   id="path3805"
   inkscape:connector-curvature="0" /></svg>